<svg id="svg-source" height="0" version="1.1" 
  xmlns="http://www.w3.org/2000/svg" style="position:absolute; margin-left: -100%" 
  xmlns:xlink="http://www.w3.org/1999/xlink">
  
  <!-- ESEMPIO -->	


 <!-- ESEMPIO -->	
<g id="Basecamp3" data-iconmelon="Geomicons:70bda94673c2950a06d03c12b1e489a5">
<g>
  <path id="Basecamp" d="M1.9,21.9c0.2,0.3,0.4,0.5,0.6,0.8c0.4,0.5,0.9,1,1.4,1.4c1.1,0.9,2.4,1.5,3.7,1.9c1.5,0.5,3.1,0.8,4.7,0.9
    c1.8,0.2,3.7,0.2,5.6,0c1.7-0.2,3.4-0.5,5-1.2c1.4-0.6,2.7-1.4,3.9-2.4c0.3-0.3,0.6-0.5,0.8-0.9c0.2-0.3,0.4-0.6,0.4-0.9
    c0-0.4,0-0.8-0.1-1.2c-0.1-0.4-0.2-0.9-0.3-1.3c0-0.2-0.1-0.3-0.1-0.5c-0.4-1.8-1.1-3.6-1.9-5.3c-0.7-1.4-1.6-2.8-2.7-4
    c-1-1.1-2.1-2.1-3.4-2.8c-0.7-0.4-1.4-0.7-2.2-0.9c-0.4-0.1-0.8-0.2-1.2-0.3c-0.1,0-0.2,0-0.3,0c-0.1,0-0.3,0-0.4,0
    c-0.3,0-0.5,0-0.8,0c-0.1,0-0.2,0-0.4,0c-0.1,0-0.2,0-0.3,0c-0.2,0-0.4,0.1-0.6,0.1c-0.4,0.1-0.8,0.2-1.2,0.4
    C11,6,10.2,6.4,9.5,6.9c-1.4,1-2.6,2.2-3.6,3.5c-1.1,1.4-1.9,3-2.6,4.6c-0.7,1.8-1.2,3.6-1.5,5.5c0,0.2-0.1,0.5-0.1,0.7
    c0,0.1,0,0.3,0,0.4c0,0.1,0,0.1,0,0.1C1.8,21.8,1.8,21.8,1.9,21.9z M3.6,20.7c0-0.1,0-0.2,0.1-0.4c0.1-0.2,0.1-0.5,0.2-0.7
    C4.1,18.8,4.6,18,5,17.2c0.2-0.4,0.5-0.8,0.7-1.1C6,15.7,6.3,15.3,6.5,15c0.5-0.6,1-1.2,1.7-1.5c1-0.3,1.8,0.7,2.4,1.4
    c0.3,0.4,0.7,0.8,1.2,1c0.2,0.1,0.4,0.1,0.7,0.1c0.3,0,0.6-0.3,0.9-0.5c0.7-0.6,1.3-1.3,1.8-2c0.6-0.8,1.2-1.6,1.9-2.3
    c0.3-0.3,0.6-0.7,1-0.8c0.2-0.1,0.4,0,0.6,0c0.1,0,0.2,0.1,0.3,0.2c0.1,0.1,0.2,0.1,0.3,0.2c0.7,0.6,1.4,1.2,2,1.8
    c0.6,0.6,1.1,1.2,1.6,1.8c0.5,0.6,1,1.2,1.4,1.9c0.5,0.8,0.9,1.7,1.4,2.5c0.4,0.8,0.8,1.6,0.4,2.5c0,0,0,0.1-0.1,0.1
    c-0.7,1.3-2.1,2-3.4,2.6c-1.6,0.6-3.3,0.9-5,1c-1.8,0.1-3.6,0.1-5.3,0c-1.6-0.1-3.2-0.4-4.7-1c-1.3-0.5-2.5-1.2-3.3-2.3
    c-0.2-0.3-0.4-0.5-0.5-0.8c0,0,0-0.1-0.1-0.1C3.6,20.8,3.6,20.8,3.6,20.7z"/>
</g>
</g>

<!-- ESEMPIO -->  
<g id="Trello" data-iconmelon="Geomicons:70bda94673c2950a06d03c12b1e489a5">
<g>
  <path d="M23.7,28.4c-6.6,0-13.2,0-19.7,0c0,0-0.1,0-0.1,0c-1.4-0.3-2.2-1.2-2.5-2.6c0,0,0-0.1,0-0.1c0-6.6,0-13.1,0-19.7
    c0-0.1,0-0.1,0-0.2C1.5,5,2,4.3,2.7,3.8C3.1,3.6,3.5,3.4,4,3.3c6.6,0,13.1,0,19.7,0c0.1,0,0.1,0,0.2,0c0.8,0.2,1.5,0.6,2,1.3
    c0.3,0.4,0.4,0.9,0.5,1.3c0,6.6,0,13.1,0,19.7c0,0.1,0,0.1,0,0.2c-0.2,0.9-0.7,1.6-1.5,2.1C24.5,28.2,24.1,28.3,23.7,28.4z
     M4.6,15.2C4.6,15.2,4.6,15.2,4.6,15.2c0,2.3,0,4.7,0,7c0,1,0.6,1.6,1.6,1.6c1.5,0,3,0,4.5,0c0.1,0,0.3,0,0.4,0
    c0.7-0.2,1.2-0.8,1.2-1.6c0-4.6,0-9.3,0-13.9c0-1.1-0.6-1.7-1.7-1.7c-1.4,0-2.9,0-4.3,0c-1.1,0-1.7,0.6-1.7,1.7
    C4.6,10.6,4.6,12.9,4.6,15.2z M23.1,12.1C23.1,12.1,23.1,12.1,23.1,12.1c0-1.3,0-2.6,0-3.9c0-0.9-0.6-1.6-1.6-1.6c-1.5,0-3,0-4.5,0
    c-0.9,0-1.6,0.6-1.6,1.6c0,2.6,0,5.2,0,7.8c0,0.9,0.6,1.6,1.6,1.6c1.5,0,3,0,4.5,0c0.1,0,0.3,0,0.4,0c0.7-0.2,1.2-0.7,1.2-1.5
    C23.1,14.7,23.1,13.4,23.1,12.1z"/>
</g>
</g>

<!-- ESEMPIO -->  
<g id="home" data-iconmelon="Geomicons:70bda94673c2950a06d03c12b1e489a5">
<path d="M32 19l-6-6v-9h-4v5l-6-6-16 16v1h4v10h10v-6h4v6h10v-10h4z"></path>
</g>



<!-- FILTRO INSET SHADOW -->	  
<filter id='inset-shadow' data-iconmelon='filter:96c25f4e7a8a5b39d6df22c349dbaf39' >
    <!-- Shadow offset -->
    <feOffset
            dx='0'
            dy='0'
          />
    <!-- Shadow blur -->
    <feGaussianBlur
            stdDeviation='1'
            result='offset-blur'
          />
    <!-- Invert drop shadow to make an inset shadow-->
    <feComposite
            operator='out'
            in='SourceGraphic'
            in2='offset-blur'
            result='inverse'
          />
    <!-- Cut colour inside shadow -->
    <feFlood
            flood-color='black'
            flood-opacity='.95'
            result='color'
          />
    <feComposite
            operator='in'
            in='color'
            in2='inverse'
            result='shadow'
          />
    <!-- Placing shadow over element -->
	 
    <feComposite
            operator='over'
            in='shadow'
            in2='SourceGraphic'
          />
  </filter>

<!--  RILIEVO -->   
  <filter id='emboss' x="-25%" y="-25%" width="150%" height="150%">
    <feOffset in="SourceAlpha" dx="0.16666666666666666" dy="0.8333333333333334" result="17"></feOffset>
    <feGaussianBlur stdDeviation="0.5" in="17" result="18"></feGaussianBlur>
    <feSpecularLighting surfaceScale="1" specularConstant="0.9" specularExponent="15" in="18" result="19">
      <fePointLight x="-1000" y="-5000"   z="300"></fePointLight>
    </feSpecularLighting>
    <feComposite in="19" in2="SourceAlpha" operator="in" result="20"></feComposite>
    <feOffset in="SourceAlpha" dx="-0.16666666666666666" dy="-0.8333333333333334" result="21"></feOffset>
    <feGaussianBlur stdDeviation="0.5" in="21" result="22"></feGaussianBlur>
    <feSpecularLighting surfaceScale="1" specularConstant="1.8" specularExponent="8" in="22" result="23">
      <fePointLight x="100" y="5000" z="300"></fePointLight>
    </feSpecularLighting>
    <feComposite in="23" in2="SourceAlpha" operator="in" result="24"></feComposite
    
  >
    <feColorMatrix values="0 0 0 0 0 0 0 0 0 0 0 0 0 0 0 0 0 0 .85 0" in="24" result="25"></feColorMatrix>
    <feComposite k1="0" k2="0.8" k3="0.5" k4="0" in="20" in2="25" operator="arithmetic" result="26"></feComposite>
    <feMerge in="26" result="27">
      <feMergeNode in="SourceGraphic"></feMergeNode>
      <feMergeNode in="26"></feMergeNode>
    </feMerge>
  </filter>
  
 <!--  BLUR --> 
  <filter id='blurry' x="-200%" y="-200%" width="400%" height="400%">
    <feGaussianBlur in="SourceGraphic" stdDeviation="1" />
  </filter>
  
  <!-- OMBRA COLORATA -->    
  <filter id='color-shadow' color-interpolation-filters="sRGB">
    <feComponentTransfer in="SourceGraphic">
      <feFuncR type="discrete" tableValues=".5"/>
      <feFuncG type="discrete" tableValues=".5"/>
      <feFuncB type="discrete" tableValues=".5"/>
    </feComponentTransfer>
    <feGaussianBlur stdDeviation=".85"/>
    <feOffset dx="1" dy="1" result="shadow"/>
    <feComposite in="SourceGraphic" in2="shadow" operator="over"/>
  </filter>
      
  <!-- OMBRA COLORATA2 -->    
        <filter id='color-shadow2' color-interpolation-filters="sRGB">
     <feOffset dx="1" dy="1"/>
    <feGaussianBlur stdDeviation=".85"/>
    <feColorMatrix type="matrix" values="0 0 0 0 .2, 1 0 0 0 1, 1 0 0 0 .75, 0 0 0 1 0" result="shadow"/>
    <feMerge>
      <feMergeNode in="shadow"/>
      <feMergeNode in="SourceGraphic"/>
    </feMerge>
  </filter>
  
    <!-- OMBRA COLORATA3 -->    
        <filter id='color-shadow3' color-interpolation-filters="sRGB">
     <feOffset dx="1" dy="1"/>
    <feGaussianBlur stdDeviation=".85"/>
    <feColorMatrix type="matrix" values="0 0 0 0 .2, 1 0 0 0 1, 1 0 0 0 .75, 0 0 0 1 0" result="shadow"/>
    <feMerge>
      <feMergeNode in="shadow"/>
      <feMergeNode in="SourceGraphic"/>
    </feMerge>
  </filter>
  

<!-- gradient hover -->

<linearGradient id="gradient_verde" gradientUnits="userSpaceOnUse" x1="22.375" y1="38.1237" x2="22.375" y2="6.125">

	<stop  offset="0.1754" style="stop-color:#008B58"/>

	<stop  offset="0.3175" style="stop-color:#2C9965"/>

	<stop  offset="0.5333" style="stop-color:#49A975"/>

	<stop  offset="0.7572" style="stop-color:#58B47F"/>

	<stop  offset="1" style="stop-color:#5DB782"/>
</linearGradient>

<linearGradient id="gradient_giallo" gradientUnits="userSpaceOnUse" x1="22.375" y1="38.1237" x2="22.375" y2="6.125">

	<stop  offset="0" style="stop-color:#F2A505"/>
	
	<stop  offset="0.7572" style="stop-color:#FDD759"/>

	<stop  offset="1" style="stop-color:#FDD759"/>

</linearGradient>
  
</svg>
